<?xml version="1.0" standalone="no"?>
<!DOCTYPE svg PUBLIC "-//W3C//DTD SVG 20010904//EN"
 "http://www.w3.org/TR/2001/REC-SVG-20010904/DTD/svg10.dtd">
<svg version="1.0" xmlns="http://www.w3.org/2000/svg"
 width="605.000000pt" height="800.000000pt" viewBox="0 0 605.000000 800.000000"
 preserveAspectRatio="xMidYMid meet">
<metadata>
Created by potrace 1.14, written by Peter Selinger 2001-2017
</metadata>
<g transform="translate(0.000000,800.000000) scale(0.100000,-0.100000)"
fill="#000000" stroke="none">
<path d="M4675 7973 c-55 -14 -108 -29 -118 -34 -10 -5 -22 -7 -27 -4 -5 3
-11 1 -15 -5 -3 -5 -14 -10 -23 -10 -46 0 -271 -131 -392 -228 -115 -92 -239
-237 -367 -427 -40 -60 -210 -362 -274 -485 -81 -158 -244 -438 -310 -532 -10
-15 -19 -29 -19 -32 0 -2 -34 -62 -76 -132 -152 -257 -280 -483 -374 -659 -24
-44 -46 -84 -50 -90 -4 -5 -33 -59 -65 -120 -32 -60 -70 -132 -85 -160 -15
-27 -46 -86 -70 -130 -167 -309 -323 -574 -342 -583 -5 -2 -8 -8 -8 -12 0 -21
-243 -380 -444 -655 -209 -288 -336 -443 -525 -640 -242 -252 -462 -530 -678
-855 -124 -186 -133 -203 -231 -411 -101 -215 -162 -505 -162 -770 0 -159 16
-268 56 -372 52 -136 119 -220 256 -320 42 -32 79 -57 81 -57 3 0 56 -24 118
-54 63 -30 155 -66 204 -81 50 -15 99 -31 110 -36 11 -5 74 -21 140 -35 111
-25 137 -27 340 -27 236 0 323 11 471 58 43 14 80 23 82 20 3 -3 11 0 19 6 7
6 13 8 13 4 0 -4 6 -2 13 4 8 6 22 12 33 14 10 2 28 8 39 12 11 4 76 30 145
57 69 27 144 60 166 73 23 14 44 21 48 18 3 -3 6 -1 6 5 0 7 6 12 13 12 21 0
149 93 282 204 214 180 677 652 1074 1096 52 58 110 123 130 145 102 112 250
321 346 485 27 47 86 144 131 217 45 73 109 178 141 233 32 56 63 109 68 118
6 9 37 62 69 117 32 55 88 148 123 207 70 117 179 331 213 418 12 30 25 59 30
65 5 5 20 39 33 75 38 98 161 361 222 475 30 56 68 133 83 171 16 38 39 89 50
114 11 25 61 140 111 256 49 116 108 250 130 298 41 86 152 358 166 406 4 14
13 39 20 55 8 17 30 82 50 145 20 63 39 122 42 130 3 8 7 17 8 20 1 3 5 12 8
20 10 22 78 282 79 300 0 8 4 20 8 25 14 17 41 204 49 329 15 233 -21 554 -78
708 -129 346 -451 628 -926 812 -170 65 -203 68 -360 29z m328 -72 c239 -91
384 -172 555 -309 224 -179 356 -398 401 -662 36 -209 43 -482 17 -650 -46
-297 -248 -917 -411 -1265 -48 -102 -52 -110 -142 -325 -36 -85 -73 -173 -83
-195 -10 -22 -30 -69 -45 -105 -15 -36 -57 -123 -95 -195 -37 -71 -128 -263
-200 -425 -201 -448 -186 -420 -575 -1080 -34 -58 -96 -160 -138 -228 -43 -68
-77 -125 -77 -127 0 -16 -221 -354 -278 -425 -64 -80 -224 -261 -446 -505
-405 -443 -848 -872 -1033 -998 -128 -86 -476 -233 -673 -283 -175 -44 -295
-56 -509 -51 -149 3 -218 10 -289 26 -224 50 -494 158 -618 246 -84 60 -178
165 -214 239 -112 230 -103 651 21 1015 80 233 205 453 458 802 170 235 310
404 502 604 266 277 554 654 887 1160 216 329 282 442 662 1150 24 44 60 111
82 148 21 38 38 70 38 71 0 6 103 182 121 208 11 14 19 29 19 32 0 4 30 57 67
119 36 61 96 162 131 222 36 61 105 173 152 250 85 137 144 243 290 515 289
537 477 749 855 960 21 12 109 40 194 61 85 22 157 42 160 45 14 14 114 -7
214 -45z"/>
<path d="M4445 7496 c-92 -30 -135 -66 -135 -116 0 -15 6 -35 14 -46 13 -17
29 -19 168 -21 185 -2 270 -18 381 -73 134 -66 208 -146 282 -303 45 -97 63
-119 109 -137 23 -8 34 -7 52 5 32 21 39 58 25 126 -31 154 -127 285 -308 421
-156 116 -450 189 -588 144z m280 -46 c124 -33 221 -78 304 -141 170 -128 281
-293 281 -420 0 -94 -52 -75 -106 39 -101 215 -213 318 -415 386 -90 30 -263
49 -366 40 -64 -6 -73 -5 -79 11 -10 25 6 46 54 73 83 46 182 50 327 12z"/>
<path d="M4097 7120 c-83 -21 -156 -74 -220 -158 -63 -83 -72 -112 -72 -227 0
-143 15 -186 91 -263 73 -72 145 -110 245 -125 l67 -11 -43 -56 c-94 -122
-125 -230 -81 -279 23 -26 49 -26 102 -2 68 31 210 142 197 154 -12 13 -28 7
-58 -19 -50 -44 -145 -105 -175 -114 -36 -10 -50 4 -52 52 -1 43 29 101 99
190 54 68 75 85 111 91 11 2 42 20 68 42 27 21 54 42 59 46 6 5 10 -17 10 -59
0 -120 81 -243 213 -325 32 -20 69 -38 83 -41 13 -3 48 -11 77 -17 137 -30
305 60 384 208 69 128 58 306 -26 416 -30 40 -123 106 -158 112 -12 3 -44 12
-71 21 -30 10 -83 17 -136 17 -76 0 -94 -4 -151 -31 l-65 -30 -6 46 c-12 86
-45 154 -101 208 -126 121 -280 181 -391 154z m212 -70 c92 -47 182 -124 214
-184 16 -31 22 -59 22 -116 0 -66 -4 -83 -35 -145 -38 -76 -137 -182 -195
-209 -41 -20 -162 -23 -226 -6 -58 15 -102 43 -167 104 -40 38 -56 61 -67 100
-23 84 -27 138 -15 206 13 72 35 114 94 178 77 83 134 111 232 112 53 0 74 -6
143 -40z m583 -321 c29 -6 82 -20 118 -31 202 -66 271 -339 130 -525 -109
-144 -266 -180 -436 -98 -215 103 -280 303 -165 504 74 131 194 182 353 150z"/>
<path d="M4175 6870 c-3 -5 -22 -10 -41 -10 -19 0 -36 -6 -38 -12 -2 -7 -9
-30 -15 -51 -11 -34 -11 -41 5 -58 9 -10 24 -19 32 -19 9 0 23 -6 31 -14 9 -7
31 -18 50 -25 28 -9 39 -8 58 4 25 17 30 44 11 63 -9 9 -6 17 11 36 24 25 23
56 -1 56 -7 0 -24 9 -38 20 -27 21 -55 26 -65 10z"/>
<path d="M4886 6525 c-24 -24 -25 -24 -56 -7 -30 16 -32 16 -45 -2 -8 -11 -15
-28 -15 -38 0 -12 -11 -23 -30 -29 -44 -16 -41 -57 8 -100 20 -18 42 -42 47
-53 14 -28 38 -31 101 -11 60 19 66 31 45 92 -14 38 -14 43 2 61 20 21 23 82
5 100 -18 18 -34 15 -62 -13z"/>
<path d="M3543 6371 c-120 -41 -214 -168 -227 -305 -4 -47 19 -186 39 -231 7
-16 20 -46 28 -67 28 -68 89 -153 170 -235 78 -80 126 -107 114 -64 -3 15 8
11 66 -21 76 -42 177 -113 190 -135 4 -7 15 -13 24 -13 9 0 24 -6 32 -13 9 -7
34 -19 56 -26 45 -15 102 -39 192 -83 50 -24 67 -29 90 -21 15 5 54 6 86 3 33
-3 62 -1 69 5 7 7 12 6 15 -2 6 -17 28 -16 121 3 89 18 119 32 173 81 60 55
82 104 87 201 7 136 -30 196 -188 306 -121 84 -183 104 -354 116 -123 8 -133
10 -212 49 -58 29 -88 51 -103 74 -11 18 -33 42 -50 55 -17 12 -40 41 -51 63
-12 22 -27 42 -35 46 -8 3 -15 11 -15 17 0 13 -50 63 -90 89 -17 12 -46 17
-95 17 -174 0 -285 -134 -256 -306 15 -87 20 -107 30 -129 35 -70 59 -138 54
-150 -9 -25 26 -84 83 -140 56 -56 64 -68 39 -59 -8 4 -15 10 -15 15 0 4 -32
34 -71 65 -57 45 -77 69 -100 118 -16 33 -29 67 -29 73 0 7 -11 46 -25 86 -33
100 -41 202 -20 274 39 135 142 222 262 223 62 0 165 -38 205 -75 28 -26 53
-32 62 -16 16 25 -124 104 -213 121 -70 13 -76 13 -138 -9z m636 -520 l63 -17
-39 -40 c-21 -22 -54 -46 -72 -54 -32 -13 -35 -12 -52 9 -22 27 -23 41 -8 94
8 30 14 37 27 32 9 -4 46 -15 81 -24z m231 -37 c0 -35 -57 -107 -103 -130 -20
-11 -32 -12 -47 -4 -23 12 -24 26 -9 101 l11 54 74 -3 c57 -3 74 -7 74 -18z
m87 -5 c72 -29 123 -53 123 -59 0 -12 -75 -78 -108 -94 -41 -21 -70 -13 -77
22 -3 15 -9 44 -14 64 -4 21 -4 35 0 32 5 -3 9 6 9 20 0 29 20 34 67 15z
m-768 -114 c12 -12 12 -21 -3 -67 -9 -29 -26 -64 -37 -78 l-21 -25 -65 68
c-35 38 -62 74 -60 80 6 18 108 47 142 42 16 -3 36 -12 44 -20z m614 -83 c94
-22 168 -89 220 -197 32 -65 37 -86 37 -146 0 -65 -2 -70 -26 -79 -33 -13 -33
-13 -27 10 8 31 -25 124 -53 151 -18 17 -37 24 -71 24 -39 1 -48 5 -60 28 -7
15 -33 36 -56 48 -23 12 -61 40 -84 62 -34 32 -43 48 -43 74 0 54 27 58 163
25z m-453 -27 c16 -19 2 -55 -40 -105 l-29 -35 -65 35 c-76 41 -76 53 6 93 60
29 110 34 128 12z m130 -136 c7 -11 9 -27 6 -35 -5 -12 0 -12 25 2 23 12 34
13 44 4 16 -14 55 -112 55 -140 0 -18 -2 -18 -62 2 -35 12 -69 23 -76 25 -8 2
-11 11 -8 23 19 67 20 67 -12 31 l-31 -33 -60 53 c-33 29 -59 54 -58 55 11 10
100 33 129 34 28 0 40 -5 48 -21z m267 -91 c28 -60 32 -81 26 -123 -3 -25 -10
-45 -15 -45 -6 0 -36 14 -68 31 l-58 31 14 41 c25 72 35 87 64 87 18 0 30 -7
37 -22z m182 -42 c23 -24 47 -93 36 -104 -8 -8 -103 -18 -143 -14 -31 3 -33 5
-27 32 8 34 73 110 95 110 9 0 26 -11 39 -24z"/>
<path d="M4520 6008 c0 -18 81 -88 130 -112 101 -51 145 -61 215 -49 66 11
134 48 118 64 -6 6 -29 1 -58 -12 -98 -43 -232 -11 -337 83 -43 38 -68 48 -68
26z"/>
<path d="M4836 5752 c-2 -4 8 -27 24 -51 85 -126 100 -294 35 -406 -87 -151
-300 -244 -457 -200 -21 5 -28 4 -28 -7 0 -54 191 -48 314 10 221 105 306 343
198 557 -44 88 -72 120 -86 97z"/>
<path d="M3005 5598 c-90 -30 -155 -87 -155 -136 0 -25 33 -97 50 -107 14 -8
57 40 72 81 7 19 16 34 20 34 4 0 8 5 8 11 0 6 11 33 25 61 36 72 35 75 -20
56z"/>
<path d="M4416 3624 c-34 -17 -63 -49 -111 -121 -54 -80 -45 -102 43 -103 73
0 118 71 109 174 -3 32 -7 59 -9 62 -2 2 -17 -3 -32 -12z"/>
<path d="M1461 2576 c-46 -25 -64 -91 -41 -150 16 -43 46 -32 121 44 38 38 68
75 67 82 -7 35 -100 50 -147 24z"/>
<path d="M701 2333 c-39 -42 -43 -50 -38 -85 6 -42 48 -88 80 -88 23 0 87 29
85 38 -1 4 7 25 17 47 22 51 25 113 5 125 -8 5 -35 10 -60 10 -41 0 -49 -4
-89 -47z"/>
<path d="M2625 1386 c-32 -14 -84 -73 -123 -137 -22 -38 -22 -39 -5 -58 23
-25 65 -41 108 -41 37 0 99 23 88 33 -3 4 2 7 12 7 10 0 15 3 12 6 -3 4 5 26
19 50 l26 44 -26 55 c-22 48 -29 55 -53 55 -15 -1 -41 -7 -58 -14z"/>
</g>
</svg>
